<svg id="图层_1" data-name="图层 1" xmlns="http://www.w3.org/2000/svg" viewBox="0 0 1024 1024"><defs><style>.cls-1{fill:#ccc;}.cls-2{fill:#e21021;}</style></defs><title>yunji</title><path class="cls-1" d="M260.73,803.24a.47.47,0,0,0,0-.52,3.6,3.6,0,0,1,2.85-.83c5.08-.05,10.1-.05,15.17,0,1,0,2.07,0,2.8.93a.4.4,0,0,1-.1.41Z"/><path class="cls-2" d="M622.24,475.36c17.35-.23,34.58-.11,51.82-.11v-.11c13.52,0,27-.11,40.56,0,18.48.11,18.36.23,17.12-18.25-.23-3.38-1.35-4.39-4.73-4.39-35.26.11-70.52.23-105.78.11-3.49,0-4.62,1.46-4.62,4.62.11,4.17.11,8.22-.11,12.39C616,474.23,618,475.36,622.24,475.36Z"/><path class="cls-2" d="M616.49,519.52c-.11,4.06.9,5.52,5.29,5.52,17.46-.23,34.81-.11,52.27-.11V525h45.62c11.94,0,11.94,0,12.17-12.05.11-9.12.11-9.24-9.24-9.24-30.19,0-60.38.11-90.57,0C612.44,503.63,617.06,504.19,616.49,519.52Z"/><path class="cls-2" d="M624.49,423.53a23.56,23.56,0,0,0,2.82.11q40.56,0,81.11-.11c6.42,0,12.73-.23,19.15-.23,2.7,0,4.06-1.13,4.06-4.06-.11-4.73,0-9.46.23-14.08.23-4.17-1.58-5.41-5.63-5.41-17.35.23-34.58.11-51.82.11V400H631.59c-15.21,0-15.21,0-15,15.21C616.61,423.2,616.61,423.2,624.49,423.53Z"/><path class="cls-2" d="M863,0H161A161,161,0,0,0,0,161V863a161,161,0,0,0,161,161H863a161,161,0,0,0,161-161V161A161,161,0,0,0,863,0ZM151.12,360.34c0-3.94,1.8-6,5.63-6.2,3.15-.23,6.31-.45,9.58-.45H311l-.11.11H456.64c2,0,4.17,0,6.2.11,3.6.23,5.52,2,5.52,5.75L468,386.13c0,3.38-1.92,4.62-5,4.51-22.64-1.13-45.4-.45-68-.45q-98.85-.17-197.6,0c-12.5,0-25.12.34-37.63.56-7.55.11-9.24-1.46-9.12-9C150.78,374.64,151.12,367.55,151.12,360.34ZM495.84,513.55c-58.81.56-117.5.45-176.3.23-4.73,0-9.35,0-14.08-.11-3-.11-4.84,1.46-6.42,3.72-16.45,24.11-33,48-49.34,72.1-12.17,17.91-24,35.94-36.16,53.74-2.37,3.38-1.13,4.39,1.92,5.52a195.15,195.15,0,0,0,32,7.89c27.94,5,56,5.07,84.15,3a272.66,272.66,0,0,0,42.58-6.87,407.14,407.14,0,0,0,47.65-14.31c3.72-1.35,5.18-2.14,2.7-6.53C412.48,610.65,401.1,589,389,567.73c-2.25-3.94-1.58-5.86,2-7.89,7.89-4.28,15.55-8.9,23.54-13.07,6.08-3.15,9.13-2.14,12.39,3.72q24,43.43,47.88,86.86c5.63,10.25,11.27,20.73,17.12,30.87,2.7,4.62,1.92,7.44-2.82,9.91-8.11,4.17-16.22,8.45-24,13.18-4.51,2.7-6.87,1.69-9-2.7-1.92-4.06-4.39-7.89-6.31-11.83s-4.28-5.18-8.9-3.6c-13.74,4.84-27.49,9.91-41.57,13.41-22,5.41-43.94,11.15-66.69,11.6-2.93.11-5.86,1-8.79,1.46l-45.29-.23c-23.43-1.58-46.41-4.84-69.06-11.6-18.25-5.52-36-12.05-52.95-21.07-5.63-3-6.08-5.29-2.7-10.59C163.17,642,172.86,628,182.44,614c9.8-14.19,19.26-28.61,29.29-42.58,8.22-11.27,15.21-23.43,23.54-34.58a189.1,189.1,0,0,0,12.05-18.7c1.69-2.82,1-3.72-2.25-4.17-8.67-1.13-17.24,0-25.91-.11-30.53-.34-61.17-.34-91.7-.45-8.79-.11-8.79-.23-8.79-8.9,0-7,.23-13.86,0-20.84-.23-5.07,2.14-6.65,6.65-6.65,9.91,0,19.94-.23,29.85-.23q167.8,0,335.71.11h1.69c9.35,0,9.35,0,9.35,9.24,0,7.1-.23,14.31.11,21.4C502.26,512.42,500.35,513.55,495.84,513.55Zm35.6-48.89a126.35,126.35,0,0,0-9-11.49c-4.51-5.29-5.07-7.66,1.92-13.86,7.77-6.87,16.11-13.29,24-20.17a503,503,0,0,0,41-39.54,285.25,285.25,0,0,0,30.3-39.32,41.31,41.31,0,0,0,4.73-9.46c1.58-5.41,5.18-6.76,10.25-6.42s10.48.56,15.66,1c6.87.56,7.66,1.46,6.31,8-2.25,10.7-8.11,19.6-13.41,28.84-4.62,8-4.73,8.67,3.94,8.79,25.91.34,51.82,1.58,77.73-.34,1.13-.11,2.93.56,3.38-1.13s-1.13-2.25-1.92-3.27c-3.6-4.28-7.1-8.79-11-12.62-2.37-2.37-1.58-3.72.23-5.52,5.41-5.41,10.93-10.81,16.22-16.33,3.72-3.83,6.65-3.6,10.36.23,11.15,11.49,22.76,22.76,34,34.25A14,14,0,0,0,786.94,371c33.46,0,66.8.23,100.26.23,7.55,0,8.34.56,8.45,8.22.11,5.07,0,10.14-.11,15.21-.11,4.51-3,5.18-6.87,5.18h-76c-13.29,0-26.7.23-40-.11-4.39-.11-5.75,1.69-5.63,5.52.11,3.38.23,6.76.23,10.14,0,7.89,0,8.11,8,8.11H883.93c11.94,0,11.94,0,11.49,12.05-.11,3.6.11,7.1.34,10.7.23,4.51-1.92,6.42-6.42,6.42-34.58-.11-69.06-.11-103.64-.11-4.51,0-9,.11-13.52,0-3.15-.11-4.62,1-5,4.39-2.14,18-2.14,18.25,15.55,18.25H885.85c9.12,0,10.14,1.13,10.14,10.25,0,3.94-.11,7.89,0,11.83s-1.24,6.2-5.75,6.2c-24.22-.11-48.44.11-72.66.11h-44.5c-4.06,0-5.63,1.58-5.75,6-.23,15.32-.45,15.21,15.21,15.21H885.06c2,0,4.17.11,6.2.23,3,.23,4.73,1.8,4.73,5.07-.11,5.63,0,11.27,0,16.9,0,4.62-1.69,6.87-7,6.87-44.72-.23-89.33-.11-134.06-.11q-80.27,0-160.53.23c-5.52,0-6.87-1.69-6.87-7,.11-37,0-74,0-111v-8.45c-9.91,6.31-16.67,14.31-24.78,20.84-7.1,5.75-14.08,11.6-21.18,17.46C537.75,469.16,534.48,469.27,531.44,464.65ZM905.23,606c.11,5.07-3,5.52-7.1,5.52q-48.67-.17-97.33-.23c-11.49,0-23.09,0-34.81.79,5.63,6,12.62,9.24,19.38,12.84,21.4,11.6,44.39,19.6,67.37,27.15,13.29,4.39,26.92,7.66,40.44,11.15,2.14.56,2.93,1.24,2.59,3.27a119.09,119.09,0,0,1-5.52,25.12c-1.13,3.27-4.06,2.37-6.2,1.8-10.25-2.7-20.5-5.41-30.64-8.56-12.84-3.94-25.57-8.11-38.19-12.73-23.54-8.67-46.53-18.81-67.82-32.33-5.41-3.38-6-3.38-6.08,3.27-.23,14.76-.11,29.63-.23,44.39-.11,4.28,1,9.24-3.83,12.05l-28.16-.11c-3.49-1.8-2.48-5.18-2.59-8-.11-14.08,0-28.16,0-42.25,0-3.15-.23-6.31-.34-9.58-.11-3.49-.79-4.84-4.62-2.59-8.56,5-17,10-25.69,14.76-12.39,6.76-25.35,11.83-38.19,17.12C622.13,675.32,606,680.16,590,685.12c-9.46,2.93-18.93,5.63-28.5,8.22-3.38.9-6.2.34-7.32-3.72-2-7.55-4.62-15-5.52-22.76-.23-1.92,0-3,2.25-3.6A525.66,525.66,0,0,0,614.69,644c21.07-7.66,42-15.66,60.72-28.5,1.13-.79,3.27-1.13,2.82-2.93s-2.59-1-3.94-1q-46.47-.17-92.94-.23c-11.49,0-22.87-.11-34.36,0-3.38,0-4.73-1.13-4.62-4.51.11-6,.11-12.05-.23-18-.23-5.07,1.8-6.87,7-6.76,20.84.23,41.68.11,62.52.11,29.06,0,58.24,0,87.31-.11,7.55,0,7.89-.45,7.44-8.11-.9-14.31-.9-14.31,13.52-14.31,5.29,0,10.48.11,15.77-.11,3.6-.11,5.18,1.46,5.29,5,0,3.72.45,7.55.11,11.27-.45,4.84,1.24,6.42,6.31,6.42,44.72-.23,89.33-.11,134.06-.11,6,0,12.05.23,18,0,3.27.11,5.29,1.24,5.86,4.73A122.2,122.2,0,0,0,905.23,606Z"/></svg>