<?xml version="1.0" encoding="utf-8"?>
<!-- Generator: Adobe Illustrator 21.0.0, SVG Export Plug-In . SVG Version: 6.00 Build 0)  -->
<svg version="1.1" id="图层_1" xmlns="http://www.w3.org/2000/svg" xmlns:xlink="http://www.w3.org/1999/xlink" x="0px" y="0px"
	 viewBox="0 0 1024 1024" style="enable-background:new 0 0 1024 1024;" xml:space="preserve">
<style type="text/css">
	.st0{fill:#09BB07;}
</style>
<g>
	<path class="st0" d="M319.3,385.4c0,18.5,15,33.5,33.5,33.5c18.5,0,33.5-15,33.5-33.5c0-18.5-15-33.5-33.5-33.5
		C334.3,351.9,319.3,366.9,319.3,385.4z"/>
	<path class="st0" d="M469.2,384.5c0,18.5,15,33.5,33.5,33.5c18.5,0,33.5-15,33.5-33.5c0,0,0,0,0-0.1c0-18.5-15-33.5-33.5-33.5
		S469.2,366,469.2,384.5z"/>
	<path class="st0" d="M553,534.3c0,12.9,10.4,23.3,23.3,23.3c12.9,0,23.3-10.4,23.3-23.3c0-12.9-10.4-23.3-23.3-23.3
		C563.4,511.1,553,521.5,553,534.3z"/>
	<path class="st0" d="M671.2,536.2c0,12.9,10.4,23.3,23.3,23.3c12.9,0,23.3-10.4,23.3-23.3s-10.4-23.3-23.3-23.3
		C681.6,512.9,671.2,523.4,671.2,536.2z"/>
	<path class="st0" d="M512,0C229,0,0,229,0,512s229,512,512,512s512-229,512-512S795,0,512,0z M424.5,630.2
		c-27,0-48.4-5.6-75.4-11.2l-75.4,37.2l21.4-64.2c-54-37.2-85.6-85.6-85.6-145.2c0-102.4,96.8-182.5,215-182.5
		c105.2,0,198.3,64.2,216.9,150.8c-6.5-0.9-14-0.9-20.5-0.9c-102.4,0-182.5,76.3-182.5,170.4c0,15.8,2.8,30.7,6.5,44.7
		C437.5,629.3,431,630.2,424.5,630.2z M739.1,705.6l15.8,54L696.3,727c-21.4,5.6-42.8,11.2-64.2,11.2
		c-102.4,0-182.5-69.8-182.5-155.5s80.1-155.5,182.5-155.5c96.8,0,182.5,69.8,182.5,155.5C814.5,630.2,782.9,673,739.1,705.6z"/>
</g>
</svg>
