<?xml version="1.0" encoding="utf-8"?>
<!-- Generator: Adobe Illustrator 21.0.0, SVG Export Plug-In . SVG Version: 6.00 Build 0)  -->
<svg version="1.1" id="图层_1" xmlns="http://www.w3.org/2000/svg" xmlns:xlink="http://www.w3.org/1999/xlink" x="0px" y="0px"
	 viewBox="0 0 1024 1024" style="enable-background:new 0 0 1024 1024;" xml:space="preserve">
<style type="text/css">
	.st0{fill:#FF6700;}
</style>
<rect x="230.9" y="470.9" class="st0" width="153.8" height="27.1"/>
<rect x="230.9" y="402.7" class="st0" width="153.8" height="28"/>
<rect x="230.9" y="538.3" class="st0" width="153.8" height="28"/>
<path class="st0" d="M862.8,0H161.2C72.2,0,0,72.2,0,161.2v701.5c0,89,72.2,161.2,161.2,161.2h701.5c89,0,161.2-72.2,161.2-161.2
	V161.2C1024,72.2,951.8,0,862.8,0z M499.1,607.7H359.3c35.6,14.8,99.1,44.1,130,58.9l-20.8,39c-36.4-19.1-92.3-45.3-130.5-60.6
	l17.4-37.3h-99.5l19.5,36c-41.1,22-91.5,46.6-132.6,64L124.6,667c40.7-14.4,85.6-36,125.8-59.3H116.6v-41.5h68.6V402.7h-55.5V362
	h55.5v-37.3h45.8V362h153.8v-37.3h46.2V362h55.1v40.7h-55.1v163.5h68.2V607.7z M895.2,637.4c-3.8,43.2-20.8,55.5-74.6,55.5H676.2
	c-48.7,0-69-15.3-69-65.7v-183h48.3v85.1c63.5-18.2,136-44.5,189.8-71.6l23.3,44.5c-58.9,25.8-146.1,55.1-213.1,73.3V620
	c0,25,6.4,29.7,29.2,29.7h123.7c33,0,38.5-5.1,40.7-33c0.8-12.7,1.7-41.5,2.1-51.7l49.1,11.4C899.8,584.4,897.3,619.6,895.2,637.4z
	 M907.4,466.2h-45.8v-55.1H602.9v55.1h-45.3V368h156.7l-16.1-41.1l48.3-10.6l20.3,51.7h140.6V466.2z"/>
</svg>
