<?xml version="1.0" encoding="utf-8"?>
<!-- Generator: Adobe Illustrator 21.0.0, SVG Export Plug-In . SVG Version: 6.00 Build 0)  -->
<svg version="1.1" id="图层_1" xmlns="http://www.w3.org/2000/svg" xmlns:xlink="http://www.w3.org/1999/xlink" x="0px" y="0px"
	 viewBox="0 0 1024 1024" style="enable-background:new 0 0 1024 1024;" xml:space="preserve">
<style type="text/css">
	.st0{fill:#D60B0B;}
	.st1{fill:#DA2520;}
	.st2{fill:#FFFFFF;}
</style>
<path class="st0" d="M864,1024H160C71.6,1024,0,952.4,0,864V160C0,71.6,71.6,0,160,0h704c88.4,0,160,71.6,160,160v704
	C1024,952.4,952.4,1024,864,1024z"/>
<g>
	<path class="st1" d="M213.8,391.3c-2.5,15.1-2.3,30.3-0.3,45.3C213.4,421.5,213.4,406.4,213.8,391.3z"/>
	<path class="st2" d="M906.7,403.6c10.7,9.8,12.5,46.3-1.5,70.9c-11.7,20.4-29.6,15.9-48.8,14c-28.9-2.9-58.4-2.6-87.4-1.1
		c-4.9,0.3-12.3,13.2-13.1,21c-1.8,16,0.7,32.5,0.1,48.8c-1.2,35.6-34.2,62.7-69.5,57.9c-26.6-3.6-45.9-37.8-35.3-63.1
		c5.1-12.2,11.3-20.1,26.6-10.5c15.7,9.9,22.8,1.4,24-14.9c1.6-22.2-6.7-34.5-28.6-40.6c-26.5-7.3-52.4-6.2-78.1,4.7
		c-17.8,7.6-59.3-7.3-65.9-24.2c-6.5-16.8-2-32.8,12.6-43.7c13-9.7,15.3-21.3,14.6-36.7c-1.4-31.6-1.5-63.4-0.3-95
		c0.9-25,30.8-42.9,64.3-40.5c22.9,1.6,45.8,3.8,68.7,4.2c43.6,0.7,87.3,0,131,0.4c11,0.1,22.3,1,33,3.5c15.9,3.7,30.2,10.5,27.6,31
		c-1.9,15.4-28.3,37.1-42.3,31.7c-52.3-20.2-107.2-3.1-160.2-12.9c-12.5-2.3-27.6-0.8-39.1,4.3c-10.8,4.8-18.7,16.4-27.1,25.7
		c-2.1,2.3-1.9,7-2.4,10.7c-8.3,60.5,25.3,87.5,83.2,66.1c5.9-2.2,12-10.7,13.2-17.3c2.4-12.9,0.9-26.6,2.3-39.8
		c1.1-10.1,2.5-20.8,6.8-29.8c8-16.6,20.3-17.5,26.4-0.8c7.1,19.5,11,40.9,11.9,61.6c0.5,12.9,2.8,20.1,15.3,21.6
		c19.6,2.4,39.3,4.9,59,5.6c13.9,0.5,28.1-1.3,41.9-3.4C879.9,411.6,890.1,408,906.7,403.6z"/>
	<path class="st2" d="M131.7,270.8c26.7-5,48.8-7.6,69.6-14.2c5.7-1.8,6.7-16.4,11.2-24.4c4.5-8.2,10.7-15.4,16.1-23.1
		c7.3,7.9,20.3,15.5,20.8,23.8c1.3,21.3,12.1,26.5,30.3,29.8c41.6,7.5,58.5,28.2,58.9,70.3c0.5,53.2,1.2,106.3-0.1,159.5
		c-0.4,16.5-4.7,33.9-11.6,48.9c-4,8.8-16.4,19.3-25.2,19.5c-53.4,1.2-107.6,18.4-160.1-2.8c-9.9-4-21.9-15.2-23.6-24.8
		c-14.2-80.2-11.1-160.6,4-240.4C123.8,283,130.1,274.1,131.7,270.8z M207.9,472.8c-4.1-12.5,9.9-38-23.4-35.8
		c-24.3,1.5-31.6,8.5-31.5,34.7c0.1,29.7,7.5,38,32.5,38.6C213.1,511,208,491.6,207.9,472.8z M211.4,344.6
		c-5.3-10.4-9-27.7-16.4-29.4c-10.5-2.4-29.9,3.2-34.3,11.4c-7.3,13.6-7.5,32.1-6.3,48.2c0.2,3.1,20.5,6.1,31.6,6.6
		C212.7,382.6,205,361.5,211.4,344.6z M298.8,465.9c1.2-26.9-6.7-34.9-30.5-33.9c-14.6,0.6-19.1,9.7-16.2,20.4
		c5,18.4-19.3,44.5,11.5,55.3C286,515.6,297.3,500.8,298.8,465.9z M302.6,375.6c-5.9-21.1-9.2-40.2-16.9-57.2
		c-2.8-6.3-15.9-10.3-24.4-10.6c-3.2-0.1-9,13.2-9.9,20.9C246.3,376.2,246.6,376.2,302.6,375.6z"/>
	<path class="st2" d="M463.9,394.3c1.5,1.8,5.6,6.8,9.9,11.7c27.5,31,31.7,56.1,7.9,89.9c-13.6,19.3-32.5,36.9-52.9,48.6
		c-17.4,10-24.1,20.5-25.2,39.2c-0.5,8.6-7.1,16.9-11,25.3c-9.5-7.1-20.1-13.2-28.1-21.7c-3.8-4-3.4-12.7-3.5-19.2
		c-0.3-84.9-1.1-169.8-0.1-254.7c0.3-24.1,5-48.3,9.5-72.2c3.7-19.7,15-22.1,31.1-9.8c4.9,3.8,13.2,6.4,19.1,5.3
		c45.5-9.1,92.2,40.4,77.8,85.7C490.8,346.4,476.6,368.5,463.9,394.3z M404.7,364.3c29.5,2.4,39.4-16.8,47.5-35.4
		c3.5-8,3.8-22.3-1.1-27.7c-5.3-6-19.6-8.7-27.7-6c-7.7,2.5-16.3,13.1-17.9,21.4C402.6,331.2,404.7,347,404.7,364.3z M399.7,467.6
		c5.9,7.7,11.9,15.4,17.8,23.1c10.4-11,26.2-20.4,30-33.3c4.6-15.7-12.7-21.7-26.3-21.9C400.8,435,404.4,451.2,399.7,467.6z"/>
	<path class="st2" d="M774.9,809.6c-32.2,4.4-32.5,4.3-32.7-21.8c-0.2-28,0-56,0-90.1c32.8,18.4,66.3-15.5,93.5,12.9
		c10.6-4.3,19.8-10,29.6-11.7c24.3-4.2,42.3,10,44.3,34.9c1.4,17.7,0.6,35.5,0.5,53.3c-0.1,27.1-1.9,28.3-32.4,21.3
		c0-17,0.6-34.7-0.2-52.2c-0.5-12.4,4-30.1-16.1-30.5c-21.2-0.4-17.8,18-18.4,31.3c-0.9,17.5-0.2,35.1-0.2,53.9c-12,0-20.6,0-33.3,0
		c0-21.1,1.3-41.7-0.6-61.9c-0.8-8.2-7.5-21.2-13.6-22.5c-15.3-3.2-19.6,10.3-20.1,22.7C774.3,769.1,774.9,789,774.9,809.6z"/>
	<path class="st2" d="M110.2,663.9c35.3-4.8,35.4-4.8,35.5,26.9c0.1,22.2,0.2,44.3,0.4,66.5c0.2,20.2,12.2,26.8,30.4,26.5
		c18.1-0.3,27.2-9.2,27.1-27.5c-0.1-30.2,0-60.4,0-92.6c12.5,0,22.9,0,35.2,0c0,35.4,2.6,70.9-0.8,105.7
		c-3.1,32-30.1,47.1-70.2,45.2c-33.3-1.6-55.6-19.7-57.2-50.1C108.9,731.4,110.2,698.2,110.2,663.9z"/>
	<path class="st2" d="M420.2,765.8c-24.8,0-48.2,0-71.8,0c2.1,22.7,17.2,28.9,37.1,18.2c8.9-4.8,19.2-6.8,30.9-10.8
		c-4,31-26,45-57.2,41c-30.8-3.9-51.4-31.6-47.4-63.9c4.2-33.7,30.5-55.4,62.7-51.8C404.9,701.9,423.6,727.8,420.2,765.8z
		 M345.7,736.3c0.9,2,1.9,4,2.8,6c12.2,0,24.4,0,36.6,0c0.9-2.4,1.7-4.8,2.6-7.1c-7.1-3.5-14.2-10-21.2-9.8
		C359.4,725.6,352.6,732.4,345.7,736.3z"/>
	<path class="st2" d="M725.5,756.4c0.1,35.3-22.9,58.4-58.1,58.3c-34-0.1-56.9-22.8-57.6-56.9c-0.7-34.8,22.8-59.2,57.3-59.5
		C702.2,698,725.4,721,725.5,756.4z M692.9,754.4c-1.2-14.2-4-29.9-25.1-29.9c-21.3,0.1-24.5,16-24.6,32.2
		c-0.1,16.6,4.2,32.4,24.8,32.2C688.3,788.7,692.2,773.3,692.9,754.4z"/>
	<path class="st2" d="M595.2,769.5c-1.1,28.5-19.2,44.8-49.1,45.1c-33,0.4-56-21.6-57.2-54.6c-1.2-33.2,19.9-58.8,50.9-61.5
		c30.5-2.7,51.6,12.3,56,41.2c-12.7,3.3-23.4,6.9-34.2-7.3c-11-14.5-31.1-10.3-36.1,7.3c-3.1,10.7-3.2,23.6-0.1,34.3
		c5.1,17.7,26.7,21.9,35.9,6.6C571,764.7,582.4,768.4,595.2,769.5z"/>
	<path class="st2" d="M292,811c-10.5,0-19,0-29.2,0c0-49.4,0-97.5,0-147.5c9.4,0,18.4,0,29.2,0C292,712,292,760.2,292,811z"/>
	<path class="st2" d="M626.6,522.4c0.8,32.6-14.4,58.2-29.6,58.2c-16.1,0-24.3-8.1-24.8-24.4c-0.9-26.9,14.3-54.4,30.8-51.1
		C613.3,507.2,621.7,518.6,626.6,522.4z"/>
	<path class="st2" d="M861.9,541.8c-2.6,13.6-1.7,23.7-6.3,29c-5.9,6.8-15.9,10.8-24.9,13.3c-1.7,0.5-7.9-11-10.3-17.6
		c-4-10.9-7.9-22.2-9.4-33.6c-1-7.4,0.1-20.6,3.9-22.1c8.3-3.3,22.5-4.7,27.8,0.2C852.3,519.7,857.1,533.6,861.9,541.8z"/>
	<path class="st2" d="M473.2,810.9c-15.3,0-25.2,0-39.6,0c2.5-12,1.9-24.1,7.6-31.1c3.5-4.3,20.4-4.2,24.4,0.2
		C471.2,786.2,470.5,798.2,473.2,810.9z"/>
</g>
</svg>
