<?xml version="1.0" encoding="utf-8"?>
<!-- Generator: Adobe Illustrator 21.0.0, SVG Export Plug-In . SVG Version: 6.00 Build 0)  -->
<svg version="1.1" id="图层_1" xmlns="http://www.w3.org/2000/svg" xmlns:xlink="http://www.w3.org/1999/xlink" x="0px" y="0px"
	 viewBox="0 0 1024 1024" style="enable-background:new 0 0 1024 1024;" xml:space="preserve">
<style type="text/css">
	.st0{fill:#E81054;}
</style>
<g>
	<g>
		<path class="st0" d="M896,0H128C56.9,0-0.3,57.1-0.3,128.3v768c0,70.6,57.1,127.7,128.3,127.7h768c70.6,0,128.3-57.1,128.3-128.3
			V128.3C1023.7,57.1,966.6,0,896,0z M518.7,336.3h169.8c2.2-18.3,2.2-18.9-12.9-18.9c-39.9-0.5-79.8,0-121.3,0v-55
			c36.1,0,72.8,1.1,108.9-0.5c9.2-0.5,26.4,9.2,26.4-8.6c0-17.2-17.8-8.1-26.9-8.1c-45.3-1.1-89.5-0.5-135.8-0.5v-54.4h88.4
			c-7.5-14.6-14-25.3-21-38.3c24.8-3.2,46.3-7.5,69-7.5c7,0,15.6,10.8,22.1,17.8c7,8.1,11.3,23.7,19.4,25.9
			c16.2,4.3,36.1,4.9,52.3-0.5c9.2-2.7,16.2-18.3,21.6-29.6c5.9-12.4,12.9-16.7,25.9-14.6c19.4,3.8,38.8,4.9,60.9,8.1
			c-7,12.4-14,23.2-22.1,36.6h90v56.1H823.8c-15.1,0-29.6-0.5-44.7,0.5c-4.9,0.5-8.6,5.4-13.5,8.1c4.3,3.2,8.6,8.6,12.9,8.6
			c34,1.1,67.4,0.5,101.3,0.5h28.6v55.5h-51.7c-23.2,0-46.3-0.5-69.5,0.5c-6.5,0.5-13.5,5.4-19.9,8.1c7,3.2,14,9.2,21,9.2
			c43.1,1.1,86.2,0.5,128.8,0.5h24.8v56.1H518.2L518.7,336.3z M100,583.7c-7-17.8-13.5-34.5-18.9-49
			c56.1-17.2,109.9-34.5,166.5-52.3c3.2,5.4,7,14.6,14,26.9v-75.5h-36.1c5.4,12.4,10.2,23.2,15.6,36.6c-49,15.1-97,29.1-147.7,44.2
			c-5.9-16.2-11.3-30.7-17.2-46.3c37.2-9.2,73.3-18.3,108.9-26.9c0-1.1,0-2.2-0.5-3.2c-17.2,0-35-1.6-51.7,0.5
			c-15.1,1.6-20.5-2.7-21.6-17.2c-1.1-11.9-4.9-23.7-8.6-41c37.7,0,73.3,0.5,108.9-0.5c5.4,0,11.3-6.5,16.2-10.2l-3.8-7
			c-46.3,3.8-93.2,7.5-141.2,11.3c-2.2-16.2-3.8-30.7-5.4-46.3c8.6-2.2,16.2-3.8,25.3-5.4V210.2c-5.4-1.6-12.4-3.2-18.9-5.4v-43.1
			h217.7c-5.9,16.2,13.5,38.3-15.1,49c-1.6,0.5-1.6,5.4-1.6,7.5V305c27.5,9.7,47.4-3.2,70.6-14c-18.9-12.9-35.6-23.7-52.3-35
			c9.2-11.9,16.7-22.1,25.3-33.4c-32.3-11.9-9.2-36.1-19.9-56.1h183.2c13.5,47.4-6.5,84.6-37.7,119.6c18.3,12.4,35,23.2,54.4,35.6
			c-16.2,15.6-19.4,42.6-48,50.7c1.6,10.2,4.3,25.3,6.5,40.4c-5.4,2.2-9.7,4.3-15.1,6.5c11.9,14,23.2,25.9,35.6,40.4
			c-18.9,10.8-36.6,20.5-60.4,34c30.7,9.2,56.1,16.7,84.6,25.3c-9.2,15.6-16.7,32.3-27.5,46.3c-2.7,3.8-14,4.3-19.9,2.2
			c-46.9-14.6-93.2-32.3-135.3-69v76h-65.2c-0.5-15.6-1.6-30.7-2.2-47.4C208.3,547,155.5,564.8,100,583.7z M775.8,811.7H589.9
			c-6.5,0-12.9-1.1-21.6-3.8c31.3-9.7,23.7-34,24.3-54.4c0.5-27.5,0-55.5,0-83c-1.6-0.5-3.8-1.1-4.9-1.6
			c-19.9,46.9-39.9,94.3-60.4,141.7c-2.7,0.5-4.9,0.5-7,1.1c-18.9-46.9-37.7-94.3-56.6-140.7l-7.5,1.1c0,36.1-1.6,73.3,1.1,109.4
			c0.5,9.7,14.6,18.3,22.6,28h-66.3c25.9-11.3,24.3-34,25.9-54.4c2.7-31.8,4.9-63.6,7.5-95.4c1.6-15.6-5.4-24.8-21-25.3
			c-15.6-1.1-28,4.9-28.6,23.2c-1.1,26.9-0.5,53.9-2.2,80.8c-3.2,54.4-30.7,79.8-82.5,77.1c-38.8-1.6-62-22.6-64.1-62
			c-2.2-32.9-1.6-65.2-2.2-97.5c0-14-7-21-20.5-22.1c-16.2-1.1-26.9,3.8-26.9,23.2c0.5,39.9,0.5,79.2-0.5,119.1
			c-1.1,39.9-21.6,112.6-55.5,124c-2.7,1.1-4.9,0.5-10.2,1.1c1.6-4.9,1.1-10.2,3.2-11.9c18.3-11.9,23.2-74.9,23.2-94.3
			c1.1-46.3,2.2-92.2,0-138.5c-0.5-10.8-12.9-20.5-19.9-31.3H308c-28.6,10.2-22.1,34.5-22.1,54.4c-0.5,22.1-0.5,44.2,1.1,66.3
			c2.2,30.2,18.3,48.5,42.6,49.6c22.1,1.1,42-8.6,44.7-30.7c4.9-37.2,4.9-76.5,3.2-114.3c-0.5-8.1-16.2-15.6-26.9-25.3
			c5.4-1.1,10.2-2.7,15.1-2.7c34,0,67.4,0.5,101.3-0.5c11.9-0.5,17.2,4.3,22.1,15.1c15.1,36.1,31.3,72.2,48.5,111.6
			c17.2-38.3,34-72.8,48-107.8c5.4-14.6,14-18.9,28-17.8c12.4,1.1,24.8,0.5,38.8,3.2c-34.5,12.4-23.2,38.8-23.7,60.9
			c0,28,1.6,56.6,2.2,85.2c0,18.3,5.4,30.2,25.9,29.1c19.9-0.5,24.3-12.4,23.7-29.6c-0.5-33.4,0-66.8,0-99.7
			c0-29.1,0-29.1-26.4-46.3h139v41c-1.6,0.5-2.7,0.5-4.3,1.1c-2.7-3.8-4.9-7.5-7-11.3c-9.2-17.2-39.3-28-56.1-18.9
			c-3.8,2.2-5.9,9.2-5.9,14c-0.5,17.2-0.5,35.6-0.5,54.4c23.7,5.4,44.7,5.9,59.8-18.9v56.1c-15.1-23.7-35.6-22.6-59.8-18.3
			c0,12.9-1.1,24.8,0.5,36.1c1.6,13.5-6.5,31.8,14.6,37.2c26.4,7,46.9-0.5,59.3-19.9l11.3-18.9C815.2,791.7,803.3,811.7,775.8,811.7
			z M872.8,680.2c-0.5,28,0.5,56.6,0,85.2c-0.5,18.3-1.1,36.1,22.6,44.2h-83.5l0-0.5c35-14,21-44.2,22.6-67.9
			c1.6-21,0.5-42.6,0-64.1c-0.5-29.6-0.5-29.6-25.9-50.7h86.8C866.4,636.5,873.4,660.2,872.8,680.2z M920.3,569.1
			c-1.6,3.8-9.2,5.9-13.5,5.4c-62-7-122.9-16.2-175.7-56.6c-48,33.4-104,44.7-159.5,56.6c-20.5,4.9-35,3.8-41.5-20.5
			c-3.8-12.4-10.2-23.2-16.7-36.6c55-9.7,112.1-4.9,157.4-45.8h-145v-55h141.2c10.2,0,23.7,4.3,25.9-13.5c0.5-2.2,5.4-4.3,8.6-4.3
			c18.3-0.5,36.6,0,55,0c2.7,0,7.5,0.5,7.5,2.2c5.9,25.3,26.4,15.1,41,15.1c43.7,1.1,87.3,0.5,131.5,0.5V471H781.2
			c-0.5,2.2-0.5,4.3-1.1,5.4c50.1,31.8,108.3,26.4,166.5,34C937.5,530.9,930,550.3,920.3,569.1z"/>
		<path class="st0" d="M379.7,459.2c-3.8,2.2-10.8,0-14.6-2.7c-9.7-7.5-18.3-16.7-32.3-29.6c40.4-2.2,73.8-4.3,108.3-7.5
			c0.5,1.1,1.1,2.7,1.6,3.8C421.7,435.5,401.2,447.9,379.7,459.2z"/>
		<path class="st0" d="M351.7,223.7l2.2-3.8h75.5c-9.2,12.9-16.2,24.3-25.3,37.2C385.6,245.2,368.4,234.4,351.7,223.7z"/>
		<path class="st0" d="M306.9,332c6.5,10.2,14,22.6,22.6,37.2c20.5-10.2,41.5-19.4,60.4-30.7c12.9-7.5,22.1-7.5,33.4,2.2
			c8.1,7,17.8,12.9,32.3,22.6c-59.8,5.4-113.2,9.2-174.1,14.6C291.8,360,298.8,347.1,306.9,332z"/>
		<path class="st0" d="M216.4,315.8c-1.6,1.6-5.4,0.5-8.1,0.5h-44.2c-0.5-3.8-0.5-5.9-0.5-8.6L225,304
			C221.8,308.3,220.2,312.6,216.4,315.8z"/>
		<path class="st0" d="M220.2,268.4c-16.7,1.1-34,1.1-50.1,0c-2.7-0.5-5.4-7.5-10.8-15.1c24.3,0,42,0,59.3,0.5c2.2,0,5.4,4.3,8.1,7
			C225,263,222.9,268.4,220.2,268.4z"/>
		<path class="st0" d="M197,222.6c-7.5,1.6-15.6,1.1-22.6,0c-4.3-0.5-7-4.3-10.8-7c3.2-2.2,5.9-7,9.7-7.5c7.5-1.6,15.6-0.5,23.2-0.5
			c0.5-1.6,1.1-3.2,1.6-4.3c9.2,4.3,18.9,8.1,28.6,12.4C216.9,217.7,207.2,221,197,222.6z"/>
		<path class="st0" d="M218.5,253.8c-17.2-0.5-35-0.5-59.3-0.5c5.4,7.5,8.1,14.6,10.8,15.1c16.2,1.1,33.4,1.1,50.1,0
			c2.7,0,4.9-5.4,6.5-7.5C223.9,258.2,220.7,253.8,218.5,253.8z"/>
		<path class="st0" d="M164.1,316.4h44.2c2.7,0,6.5,1.1,8.1-0.5c3.8-3.2,5.4-7.5,8.6-11.9l-61.4,3.8
			C163.6,310.4,163.6,312.6,164.1,316.4z"/>
		<path class="st0" d="M423.3,340.6c-11.3-9.7-20.5-9.7-33.4-2.2c-18.9,11.3-39.9,20.5-60.4,30.7c-8.6-14.6-16.2-26.9-22.6-37.2
			c-8.1,15.1-15.1,28-25.3,45.8c60.9-5.4,114.3-9.2,174.1-14.6C441.1,353.5,431.4,347.6,423.3,340.6z"/>
		<path class="st0" d="M196.4,207.5c-7.5,0-15.6-1.1-23.2,0.5c-3.8,0.5-6.5,5.4-9.7,7.5c3.8,2.7,6.5,6.5,10.8,7
			c7,1.1,15.1,1.6,22.6,0c10.2-1.6,19.9-4.9,29.6-7c-9.7-4.3-19.4-8.1-28.6-12.4C197.5,204.3,197,205.9,196.4,207.5z"/>
		<path class="st0" d="M429.3,219.9h-75.5l-2.2,3.8c16.7,10.8,34,21.6,52.3,33.4C413.1,244.1,420.1,232.8,429.3,219.9z"/>
		<path class="st0" d="M332.8,426.8c14,12.9,22.6,22.1,32.3,29.6c3.8,2.7,10.8,4.9,14.6,2.7c21.6-11.3,42-23.7,63.1-36.1
			c-0.5-1.1-1.1-2.7-1.6-3.8C406.6,422.5,373.2,424.7,332.8,426.8z"/>
	</g>
</g>
</svg>
