<?xml version="1.0" encoding="utf-8"?>
<!-- Generator: Adobe Illustrator 21.0.0, SVG Export Plug-In . SVG Version: 6.00 Build 0)  -->
<svg version="1.1" id="图层_1" xmlns="http://www.w3.org/2000/svg" xmlns:xlink="http://www.w3.org/1999/xlink" x="0px" y="0px"
	 viewBox="0 0 1024 1024" style="enable-background:new 0 0 1024 1024;" xml:space="preserve">
<style type="text/css">
	.st0{fill:#E00C50;}
</style>
<g>
	<g>
		<path class="st0" d="M623.2,328l-40.4,40.4H388.4c0,0-36.6-39.9-38.8-42v87.8l-68.9,68.4h342.6V328z"/>
		<path class="st0" d="M926,0H97C43.6,0,0,43.6,0,97.5v829c0,53.9,43.6,97.5,97.5,97.5h829c53.9,0,97.5-43.6,97.5-97.5v-829
			C1023.5,43.6,979.8,0,926,0z M785.9,874.3H283.3l-68.9,71.6V585.5h67.3v286l68.4-67.9h111V552.1H136.8l72.7-72.7h68.9V331.3
			L244,365.8H139.5l139-139H140.6c0,0,68.4-63.6,70.6-68.4v65.7L351.2,84v75.4h153l-70,70h-81.3l134.7,134.7l134.7-134.7H484.8
			l72.2-72.2l2.2,67.9L700.8,85.1v72.2H857l-73.8,73.8h-85.1l137.4,139H734.2l-37.7-37.7v81.3l-66.8,70.6h223.5v81.9l-73.8,73.3
			v-87.8H527.9v64.1h123.9L465.4,802.1h392.7C858.1,802.1,785.9,874.3,785.9,874.3z"/>
	</g>
</g>
</svg>
