<?xml version="1.0" encoding="utf-8"?>
<!-- Generator: Adobe Illustrator 21.0.0, SVG Export Plug-In . SVG Version: 6.00 Build 0)  -->
<svg version="1.1" id="图层_1" xmlns="http://www.w3.org/2000/svg" xmlns:xlink="http://www.w3.org/1999/xlink" x="0px" y="0px"
	 viewBox="0 0 1024 1024" style="enable-background:new 0 0 1024 1024;" xml:space="preserve">
<style type="text/css">
	.st0{fill:#FE4662;}
</style>
<path class="st0" d="M886,0H138C61.8,0,0,61.8,0,138V886c0,76.2,61.8,138,138,138H886c76.2,0,138-61.8,138-138V138
	C1024,61.8,962.2,0,886,0z M405.9,147c86.8-19.3,172.2-19.3,256.2,11.1C759.8,193.3,820.2,280.6,821,385c0.4,75.2,0.2,150.5,0,225.7
	c-0.2,39.9-21.3,65.3-53.7,64.9c-36.7-0.2-60.2-26-60.2-66.6c-0.2-73.1,0.2-146.2-0.2-219.3c-0.2-77-42.6-129.4-118-142.7
	c-57.8-10.2-115.9-11.1-172.9,7.4c-63.3,20.5-98.9,68.6-99.7,135.2c-0.8,75.2-0.2,150.5-2,225.7c-0.8,38.3-25.4,61.4-59,60.4
	c-32.2-1-51.6-24.4-52-63.1c-0.4-40.3-0.2-80.5-0.2-120.8c0-29.7,1.4-59.4-0.2-89.1C195.4,261.1,302.9,169.8,405.9,147z
	 M843.4,847.5c-7.8,27.4-27.2,43.4-57.1,39.5c-53.5-6.8-101.8-28.1-147.5-55.5c-41.2-24.6-78.6-54.1-110.8-89.5
	c-14.7-16.2-23.3-13.7-37.5,0.6c-66.4,68-143.4,118.6-236.7,141.9c-34,8.6-61-2-71.5-29.3c-11.1-28.9,2.5-55.1,36.7-70
	c8.8-3.5,17.8-6.1,27-8c114.3-25.4,221.2-114.9,210.7-265.6c-0.6-8.4,0-17,0-25.4h0.2c0-23.3-0.8-46.7,0.2-70
	c1.4-34.4,24.2-56.9,55.7-56.7c30.7,0.2,54.3,24.2,55.1,57.8c1,50.8-3.7,102.4,2.9,152.4c15.2,115.9,95.2,173.3,199.1,206
	c15.2,4.7,30.9,8,44.9,15C837.8,801.8,850.7,821.2,843.4,847.5z"/>
</svg>
